<?xml version="1.0" encoding="utf-8"?>
<!-- Generator: Adobe Illustrator 24.3.0, SVG Export Plug-In . SVG Version: 6.00 Build 0)  -->
<svg version="1.1" id="Layer_1" xmlns="http://www.w3.org/2000/svg" xmlns:xlink="http://www.w3.org/1999/xlink" x="0px" y="0px"
	 viewBox="0 0 144 288" style="enable-background:new 0 0 144 288;" xml:space="preserve">
<style type="text/css">
	.st0{fill:#A6756A;}
	.st1{fill:#F17E63;}
</style>
<g>
	<g>
		<path class="st0" d="M31.63,7.97c-1.55,5.57-3.09,11.14-4.64,16.72c-2.46,8.88-4.93,17.76-7.39,26.64
			c-0.56,2.03-1.13,4.07-1.69,6.1c-0.69,2.47,0.84,5.61,3.49,6.15c6.5,1.32,13,2.65,19.49,3.97c-0.74-0.43-1.47-0.86-2.21-1.29
			c4,5.07,8,10.15,12,15.22c2.31,2.93,4.63,5.86,6.94,8.8c0.62,0.79,1.14,1.51,1.91,2.13c4.68,3.73,9.35,7.47,14.03,11.2
			c7.01,5.6,14.03,11.2,21.04,16.8c2.75,2.2,5.5,4.39,8.25,6.59c1.4,1.12,2.76,2.33,4.22,3.37c0.07,0.05,0.13,0.11,0.2,0.16
			c-0.43-0.74-0.86-1.47-1.29-2.21c1.58,8.95,3.16,17.9,4.74,26.84c0.23,1.28,0.45,2.56,0.68,3.84c0-0.89,0-1.77,0-2.66
			c-1.69,10.87-3.39,21.75-5.08,32.62c-0.63,4.02-1.33,8.05-1.87,12.08c-0.22,1.63-0.06,3.34-0.04,4.98
			c0.04,3.3,0.08,6.61,0.11,9.91c0.07,5.72,0.13,11.45,0.2,17.17c0.83-1.44,1.65-2.88,2.48-4.32c-5.58,2.4-11.15,4.8-16.73,7.2
			c-8.88,3.82-17.76,7.65-26.64,11.47c-2.03,0.87-4.06,1.75-6.09,2.62c-2,0.86-2.83,3.71-2.3,5.65c1.9,6.95,3.79,13.9,5.69,20.85
			c0.27,0.99,0.54,1.99,0.81,2.98c0.69,2.52,3.59,4.32,6.15,3.49c2.58-0.84,4.23-3.45,3.49-6.15c-1.9-6.95-3.79-13.9-5.69-20.85
			c-0.27-0.99-0.54-1.99-0.81-2.98c-0.77,1.88-1.53,3.76-2.3,5.65c5.58-2.4,11.15-4.8,16.73-7.2c8.88-3.82,17.76-7.65,26.64-11.47
			c2.03-0.87,4.06-1.75,6.09-2.62c1.55-0.67,2.49-2.73,2.48-4.32c-0.09-8.08-0.19-16.16-0.28-24.24c-0.02-1.86-0.04-3.72-0.06-5.58
			c-0.01-0.45,0.03-0.91-0.02-1.35c-0.09-0.92-0.27,1.53-0.17,0.99c0.49-2.64,0.83-5.31,1.24-7.96c1.54-9.88,3.08-19.76,4.62-29.64
			c0.39-2.5,1.05-5.13,1.17-7.67c0.05-1.12-0.4-2.57-0.59-3.68c-0.36-2.03-0.72-4.05-1.07-6.08c-0.9-5.11-1.8-10.22-2.71-15.34
			c-0.32-1.82-0.64-3.64-0.96-5.45c-0.25-1.4-0.39-2.61-1.57-3.7c-1.42-1.31-3.07-2.45-4.58-3.66c-3.35-2.68-6.71-5.36-10.06-8.03
			c-8.09-6.46-16.17-12.91-24.26-19.37c-2.63-2.1-5.27-4.21-7.9-6.31c-0.98-0.79-1.68-1.41-2.46-2.39
			c-5.68-7.21-11.37-14.41-17.05-21.62c-0.71-0.9-1.38-1.86-2.14-2.71c-1.14-1.28-2.54-1.47-4.07-1.78
			c-4.78-0.97-9.56-1.95-14.35-2.92c-1.13-0.23-2.27-0.46-3.4-0.69c1.16,2.05,2.33,4.1,3.49,6.15c1.55-5.57,3.09-11.14,4.64-16.72
			c2.46-8.88,4.93-17.76,7.39-26.64c0.56-2.03,1.13-4.07,1.69-6.1c0.7-2.52-0.86-5.55-3.49-6.15C35.14,3.87,32.38,5.27,31.63,7.97
			L31.63,7.97z"/>
	</g>
</g>
<g>
	<g>
		<path class="st1" d="M29.57,8.08c-1.55,5.57-3.09,11.14-4.64,16.72c-2.46,8.88-4.93,17.76-7.39,26.64
			c-0.56,2.03-1.13,4.07-1.69,6.1c-0.69,2.47,0.84,5.61,3.49,6.15c6.5,1.32,13,2.65,19.49,3.97c-0.74-0.43-1.47-0.86-2.21-1.29
			c4,5.07,8,10.15,12,15.22c2.31,2.93,4.63,5.86,6.94,8.8c0.62,0.79,1.14,1.51,1.91,2.13c4.68,3.73,9.35,7.47,14.03,11.2
			c7.01,5.6,14.03,11.2,21.04,16.8c2.75,2.2,5.5,4.39,8.25,6.59c1.4,1.12,2.76,2.33,4.22,3.37c0.07,0.05,0.13,0.11,0.2,0.16
			c-0.43-0.74-0.86-1.47-1.29-2.21c1.58,8.95,3.16,17.9,4.74,26.84c0.23,1.28,0.45,2.56,0.68,3.84c0-0.89,0-1.77,0-2.66
			c-1.69,10.87-3.39,21.75-5.08,32.62c-0.63,4.02-1.33,8.05-1.87,12.08c-0.22,1.63-0.06,3.34-0.04,4.98
			c0.04,3.3,0.08,6.61,0.11,9.91c0.07,5.72,0.13,11.45,0.2,17.17c0.83-1.44,1.65-2.88,2.48-4.32c-5.58,2.4-11.15,4.8-16.73,7.2
			c-8.88,3.82-17.76,7.65-26.64,11.47c-2.03,0.87-4.06,1.75-6.09,2.62c-2,0.86-2.83,3.71-2.3,5.65c1.9,6.95,3.79,13.9,5.69,20.85
			c0.27,0.99,0.54,1.99,0.81,2.98c0.69,2.52,3.59,4.32,6.15,3.49c2.58-0.84,4.23-3.45,3.49-6.15c-1.9-6.95-3.79-13.9-5.69-20.85
			c-0.27-0.99-0.54-1.99-0.81-2.98c-0.77,1.88-1.53,3.76-2.3,5.65c5.58-2.4,11.15-4.8,16.73-7.2c8.88-3.82,17.76-7.65,26.64-11.47
			c2.03-0.87,4.06-1.75,6.09-2.62c1.55-0.67,2.49-2.73,2.48-4.32c-0.09-8.08-0.19-16.16-0.28-24.24c-0.02-1.86-0.04-3.72-0.06-5.58
			c-0.01-0.45,0.03-0.91-0.02-1.35c-0.09-0.92-0.27,1.53-0.17,0.99c0.49-2.64,0.83-5.31,1.24-7.96c1.54-9.88,3.08-19.76,4.62-29.64
			c0.39-2.5,1.05-5.13,1.17-7.67c0.05-1.12-0.4-2.57-0.59-3.68c-0.36-2.03-0.72-4.05-1.07-6.08c-0.9-5.11-1.8-10.22-2.71-15.34
			c-0.32-1.82-0.64-3.64-0.96-5.45c-0.25-1.4-0.39-2.61-1.57-3.7c-1.42-1.31-3.07-2.45-4.58-3.66c-3.35-2.68-6.71-5.36-10.06-8.03
			c-8.09-6.46-16.17-12.91-24.26-19.37c-2.63-2.1-5.27-4.21-7.9-6.31c-0.98-0.79-1.68-1.41-2.46-2.39
			c-5.68-7.21-11.37-14.41-17.05-21.62c-0.71-0.9-1.38-1.86-2.14-2.71c-1.14-1.28-2.54-1.47-4.07-1.78
			c-4.78-0.97-9.56-1.95-14.35-2.92c-1.13-0.23-2.27-0.46-3.4-0.69c1.16,2.05,2.33,4.1,3.49,6.15c1.55-5.57,3.09-11.14,4.64-16.72
			c2.46-8.88,4.93-17.76,7.39-26.64c0.56-2.03,1.13-4.07,1.69-6.1c0.7-2.52-0.86-5.55-3.49-6.15C33.08,3.99,30.32,5.38,29.57,8.08
			L29.57,8.08z"/>
	</g>
</g>
</svg>
