<?xml version="1.0" encoding="utf-8"?>
<!-- Generator: Adobe Illustrator 24.3.0, SVG Export Plug-In . SVG Version: 6.00 Build 0)  -->
<svg version="1.1" id="Layer_1" xmlns="http://www.w3.org/2000/svg" xmlns:xlink="http://www.w3.org/1999/xlink" x="0px" y="0px"
	 viewBox="0 0 144 288" style="enable-background:new 0 0 144 288;" xml:space="preserve">
<style type="text/css">
	.st0{fill:#A6756A;}
	.st1{fill:#F17E63;}
</style>
<g>
	<g>
		<path class="st0" d="M32.9,9.82c8.11,3.13,16.23,6.26,24.34,9.39c1.15,0.44,2.31,0.89,3.46,1.33c-0.74-0.43-1.47-0.86-2.21-1.29
			c4.4,3.67,8.8,7.34,13.19,11.02c6.98,5.83,13.95,11.65,20.93,17.48c1.62,1.35,3.24,2.71,4.86,4.06c0-2.36,0-4.71,0-7.07
			c-6.08,7.5-12.16,15-18.24,22.5c-4.15,5.11-8.29,10.23-12.42,15.35c-7.32,9.08-14.64,18.16-21.96,27.24
			c-0.73,0.91-1.47,1.81-2.2,2.73c-1.55,1.95-1.56,3.24-1.32,5.33c0.57,5.19,1.14,10.38,1.72,15.57c0.66,5.95,1.31,11.89,1.97,17.84
			c0.13,1.21,0.02,2.87,0.44,4.02c0.14,0.38,0.46-1.92,0.07-0.76c-0.25,0.75-0.45,1.52-0.68,2.28c-1.73,5.8-3.46,11.61-5.19,17.41
			c-0.51,1.7-1.11,3.41-1.53,5.13c-0.41,1.69-0.09,2.69,0.47,4.11c4.1,10.24,8.21,20.49,12.31,30.73c1.77,4.41,3.54,8.83,5.31,13.24
			c0.17,0.43,0.32,0.88,0.52,1.3c0.46,0.94-0.12-1.54-0.05-0.93c0.15,1.3,0.31,2.6,0.47,3.9c1.34,11.09,2.68,22.18,4.01,33.27
			c0.23,1.87,0.28,3.92,1.8,5.27c1.33,1.19,2.83,2.23,4.23,3.34c4.76,3.75,9.51,7.5,14.27,11.24c1.01,0.79,2.02,1.59,3.02,2.38
			c2.05,1.62,5.1,2.15,7.07,0c1.65-1.8,2.19-5.34,0-7.07c-6.31-4.98-12.63-9.95-18.94-14.93c-0.91-0.71-1.81-1.43-2.72-2.14
			c0.49,1.18,0.98,2.36,1.46,3.54c-1.52-12.58-3.03-25.15-4.55-37.73c-0.15-1.23-0.27-2.39-0.73-3.54c-0.93-2.33-1.86-4.65-2.8-6.98
			c-3.08-7.68-6.15-15.36-9.23-23.04c-2.11-5.27-4.22-10.53-6.33-15.8c0,0.89,0,1.77,0,2.66c1.22-4.1,2.45-8.2,3.67-12.3
			c1.29-4.32,2.89-8.66,3.9-13.06c0.28-1.23,0.09-2.27-0.04-3.49c-0.24-2.21-0.49-4.42-0.73-6.63c-0.68-6.16-1.36-12.32-2.04-18.48
			c-0.44-4.03-0.89-8.05-1.33-12.08c-0.49,1.18-0.98,2.36-1.46,3.54c8.03-9.96,16.05-19.92,24.08-29.88
			c6.46-8.02,12.96-16.01,19.44-24.01c3.78-4.67,7.57-9.33,11.35-14c1.58-1.95,2.24-5.2,0-7.07c-8.87-7.4-17.74-14.81-26.6-22.21
			c-3.97-3.31-7.94-6.63-11.9-9.94c-0.83-0.69-1.66-1.28-2.69-1.69c-0.49-0.2-0.98-0.38-1.47-0.57c-2.82-1.09-5.64-2.17-8.46-3.26
			c-5.95-2.3-11.91-4.59-17.86-6.89c-2.45-0.94-5.59,1.04-6.15,3.49C28.75,6.53,30.28,8.81,32.9,9.82L32.9,9.82z"/>
	</g>
</g>
<g>
	<g>
		<path class="st1" d="M30.9,9.52c8.11,3.13,16.23,6.26,24.34,9.39c1.15,0.44,2.31,0.89,3.46,1.33c-0.74-0.43-1.47-0.86-2.21-1.29
			c4.4,3.67,8.8,7.34,13.19,11.02c6.98,5.83,13.95,11.65,20.93,17.48c1.62,1.35,3.24,2.71,4.86,4.06c0-2.36,0-4.71,0-7.07
			c-6.08,7.5-12.16,15-18.24,22.5c-4.15,5.11-8.29,10.23-12.42,15.35c-7.32,9.08-14.64,18.16-21.96,27.24
			c-0.73,0.91-1.47,1.81-2.2,2.73c-1.55,1.95-1.56,3.24-1.32,5.33c0.57,5.19,1.14,10.38,1.72,15.57c0.66,5.95,1.31,11.89,1.97,17.84
			c0.13,1.21,0.02,2.87,0.44,4.02c0.14,0.38,0.46-1.92,0.07-0.76c-0.25,0.75-0.45,1.52-0.68,2.28c-1.73,5.8-3.46,11.61-5.19,17.41
			c-0.51,1.7-1.11,3.41-1.53,5.13c-0.41,1.69-0.09,2.69,0.47,4.11c4.1,10.24,8.21,20.49,12.31,30.73c1.77,4.41,3.54,8.83,5.31,13.24
			c0.17,0.43,0.32,0.88,0.52,1.3c0.46,0.95-0.12-1.54-0.05-0.93c0.15,1.3,0.31,2.6,0.47,3.9c1.34,11.09,2.68,22.18,4.01,33.27
			c0.23,1.87,0.28,3.92,1.8,5.27c1.33,1.19,2.83,2.23,4.23,3.34c4.76,3.75,9.51,7.5,14.27,11.24c1.01,0.79,2.02,1.59,3.02,2.38
			c2.05,1.62,5.1,2.15,7.07,0c1.65-1.8,2.19-5.34,0-7.07c-6.31-4.98-12.63-9.95-18.94-14.93c-0.91-0.71-1.81-1.43-2.72-2.14
			c0.49,1.18,0.98,2.36,1.46,3.54c-1.52-12.58-3.03-25.15-4.55-37.73c-0.15-1.23-0.27-2.39-0.73-3.54c-0.93-2.33-1.86-4.65-2.8-6.98
			c-3.08-7.68-6.15-15.36-9.23-23.04c-2.11-5.27-4.22-10.53-6.33-15.8c0,0.89,0,1.77,0,2.66c1.22-4.1,2.45-8.2,3.67-12.3
			c1.29-4.32,2.89-8.66,3.9-13.06c0.28-1.23,0.09-2.27-0.04-3.49c-0.24-2.21-0.49-4.42-0.73-6.63c-0.68-6.16-1.36-12.32-2.04-18.48
			c-0.44-4.03-0.89-8.05-1.33-12.08c-0.49,1.18-0.98,2.36-1.46,3.54c8.03-9.96,16.05-19.92,24.08-29.88
			c6.46-8.02,12.96-16.01,19.44-24.01c3.78-4.67,7.57-9.33,11.35-14c1.58-1.95,2.24-5.2,0-7.07c-8.87-7.4-17.74-14.81-26.6-22.21
			c-3.97-3.31-7.94-6.63-11.9-9.94c-0.83-0.69-1.66-1.28-2.69-1.69c-0.49-0.2-0.98-0.38-1.47-0.57c-2.82-1.09-5.64-2.17-8.46-3.26
			c-5.95-2.3-11.91-4.59-17.86-6.89c-2.45-0.94-5.59,1.04-6.15,3.49C26.75,6.23,28.28,8.51,30.9,9.52L30.9,9.52z"/>
	</g>
</g>
</svg>
