<?xml version="1.0" encoding="utf-8"?>
<!-- Generator: Adobe Illustrator 24.3.0, SVG Export Plug-In . SVG Version: 6.00 Build 0)  -->
<svg version="1.1" id="Layer_1" focusable="false" xmlns="http://www.w3.org/2000/svg" xmlns:xlink="http://www.w3.org/1999/xlink"
	 x="0px" y="0px" viewBox="0 0 640 512" style="enable-background:new 0 0 640 512;" xml:space="preserve">
<style type="text/css">
	.st0{opacity:0.2;fill:#54728C;enable-background:new    ;}
	.st1{opacity:0.5;fill:#54728C;}
</style>
<path class="st0" d="M256,242.75l-66.66-66.67L293.08,14.7c9.55-14.87,29.35-19.17,44.22-9.62c3.86,2.48,7.14,5.76,9.62,9.62
	L460.9,192H306.75l-9.37,9.37L256,242.75z"/>
<path class="st1" d="M636.09,495.33C630.48,505.61,619.71,512,608,512H32c-17.67,0-32-14.33-32-32c0-6.13,1.76-12.14,5.08-17.3
	l166.55-259.07L256,288l64-64h161.47l153.45,238.7C641.25,472.54,641.7,485.06,636.09,495.33L636.09,495.33z"/>
</svg>
